<?xml version="1.0" encoding="UTF-8" standalone="no"?>
<svg
   id="Layer_2"
   viewBox="0 0 871.97 980"
   version="1.1"
   sodipodi:docname="logo-black.svg"
   inkscape:version="1.4.2 (f4327f4, 2025-05-13)"
   xmlns:inkscape="http://www.inkscape.org/namespaces/inkscape"
   xmlns:sodipodi="http://sodipodi.sourceforge.net/DTD/sodipodi-0.dtd"
   xmlns="http://www.w3.org/2000/svg"
   xmlns:svg="http://www.w3.org/2000/svg">
  <sodipodi:namedview
     id="namedview10"
     pagecolor="#505050"
     bordercolor="#eeeeee"
     borderopacity="1"
     inkscape:showpageshadow="0"
     inkscape:pageopacity="0"
     inkscape:pagecheckerboard="0"
     inkscape:deskcolor="#505050"
     inkscape:zoom="0.81750202"
     inkscape:cx="434.86131"
     inkscape:cy="307.6445"
     inkscape:window-width="2560"
     inkscape:window-height="1351"
     inkscape:window-x="2391"
     inkscape:window-y="-9"
     inkscape:window-maximized="1"
     inkscape:current-layer="g10" />
  <defs
     id="defs1">
    <style
       id="style1">
      .cls-1 {
        fill: #231f20;
      }

      .cls-2 {
        stroke-width: 10px;
      }

      .cls-2, .cls-3 {
        fill: none;
        stroke: #231f20;
        stroke-miterlimit: 10;
      }

      .cls-3 {
        stroke-width: 5px;
      }
    </style>
  </defs>
  <g
     id="Layer_1-2"
     data-name="Layer_1"
     style="display:inline">
    <g
       id="g10"
       style="display:inline">
      <rect
         class="cls-2"
         x="346.70001"
         y="5"
         width="178.64999"
         height="43"
         id="rect1"
         style="display:inline" />
      <rect
         class="cls-2"
         x="659.53003"
         y="138.31"
         width="61.860001"
         height="49.950001"
         transform="rotate(32.91,690.39832,163.25223)"
         id="rect2"
         style="display:inline" />
      <rect
         class="cls-2"
         x="652.98999"
         y="102.1"
         width="126.29"
         height="43"
         transform="rotate(32.91,716.07709,123.56888)"
         id="rect3"
         style="display:inline" />
      <rect
         class="cls-2"
         x="152.45"
         y="138"
         width="61.860001"
         height="49.950001"
         transform="rotate(147.09,183.37396,162.97735)"
         id="rect4"
         style="display:inline" />
      <rect
         class="cls-2"
         x="94.550003"
         y="101.79"
         width="126.29"
         height="43"
         transform="rotate(147.09,157.69944,123.29346)"
         id="rect5"
         style="display:inline" />
      <path
         style="display:inline;fill:#231f20;fill-opacity:1;stroke-width:2.58871"
         d="m 688.12639,841.16302 c -17.78717,-6.15175 -55.77338,-19.1989 -84.41374,-28.99372 -28.6404,-9.79478 -75.01314,-25.71647 -103.05058,-35.3815 -28.03741,-9.66502 -62.32364,-21.39899 -76.19162,-26.07548 -44.89985,-15.14084 -80.60943,-27.21537 -104.69497,-35.40066 -12.96352,-4.40556 -42.80983,-14.50798 -66.32508,-22.44983 -23.51529,-7.94184 -54.34821,-18.3745 -68.51764,-23.18374 -14.16948,-4.8092 -30.07929,-10.14331 -35.35514,-11.85351 l -9.59245,-3.10952 v -44.92914 -44.92911 l 7.88484,2.75547 c 8.98698,3.1406 37.12542,12.63923 80.91404,27.3139 16.58126,5.55679 41.49429,13.94406 55.36227,18.63833 13.86792,4.69432 30.14773,10.16823 36.1773,12.16431 6.02956,1.99605 39.48665,13.42683 74.34911,25.40173 34.86243,11.97488 63.55484,21.77247 63.76088,21.77247 0.39021,0 229.73469,79.00904 251.33953,86.58634 l 12.32831,4.32381 0.007,44.31391 c 0.003,24.37267 -0.36514,44.293 -0.81733,44.26744 -0.45224,-0.0258 -15.37539,-5.07976 -33.16256,-11.2315 z m 16.44427,-39.17212 v -31.43127 l -29.87373,-10.1644 C 658.26637,754.8048 602.64377,735.65519 551.09111,717.84057 447.27912,681.96712 399.85786,665.75516 261.6725,618.8966 214.253,602.8167 157.61306,583.89481 156.89968,583.89481 c -0.25855,0 -0.4703,14.21481 -0.4703,31.58847 v 31.58848 l 32.48485,11.01376 c 17.86667,6.05757 32.69095,11.01372 32.94284,11.01372 0.25202,0 26.2099,8.78086 57.6844,19.51298 63.35338,21.60212 99.83684,33.9691 119.71449,40.58022 27.89851,9.27875 54.15661,18.2332 128.26504,43.74044 42.20687,14.52708 86.85299,29.84438 99.21359,34.03841 12.36057,4.19403 34.56028,11.84553 49.3327,17.00331 14.77239,5.15779 27.22891,9.3935 27.68114,9.41268 0.45221,0.0193 0.82223,-14.10919 0.82223,-31.39638 z m -43.86853,-74.90834 c -33.47346,-11.59769 -82.06621,-28.34188 -107.98384,-37.20932 -25.91759,-8.86741 -75.7359,-25.9372 -110.70728,-37.9328 -34.97142,-11.99562 -75.91758,-26.00895 -90.99148,-31.14071 -15.07387,-5.13177 -58.73334,-20.09296 -97.02098,-33.2471 -38.28769,-13.15413 -79.60382,-27.30899 -91.81366,-31.45526 l -22.19972,-7.53865 v -43.92435 -43.92433 l 12.33317,4.07011 c 6.78324,2.23857 20.71974,6.88563 30.96997,10.32682 10.25023,3.44117 22.09009,7.37022 26.31079,8.73123 8.22423,2.65201 58.55929,19.47635 88.25075,29.49757 9.94875,3.35781 27.46186,9.25821 38.91802,13.11201 24.616,8.2807 66.43445,22.59332 158.41282,54.21785 37.08177,12.74967 86.90779,29.77865 110.72454,37.84218 56.57986,19.15602 114.30933,39.08123 115.37697,39.82211 0.46563,0.32314 0.71934,20.66919 0.56372,45.21344 l -0.28278,44.62593 z m 43.86853,-29.89485 v -32.01116 l -36.45145,-12.39934 c -20.04825,-6.81965 -47.55121,-16.16352 -61.11773,-20.76417 -24.00354,-8.14005 -61.21407,-20.8952 -181.98287,-62.38081 -71.38768,-24.52254 -146.20982,-49.84801 -211.03439,-71.42992 -16.88275,-5.62077 -36.45181,-12.26078 -43.4868,-14.75557 -7.03502,-2.49481 -13.07826,-4.53603 -13.42946,-4.53603 -0.35123,0 -0.63529,13.95035 -0.63125,31.00076 l 0.007,31.00073 15.61471,5.48875 c 8.58809,3.01886 24.74126,8.5414 35.89593,12.27237 11.1547,3.73096 52.8408,17.99282 92.63589,31.69301 39.79504,13.70018 88.63444,30.46151 108.53197,37.24737 72.08613,24.58432 176.68048,60.51719 235.15261,80.7855 32.86104,11.3907 59.8707,20.73045 60.02144,20.75498 0.15071,0.0246 0.27411,-14.36034 0.27411,-31.96647 z m -39.46619,-73.82073 c -30.44927,-10.49423 -64.24215,-22.08529 -75.09536,-25.75791 -10.85318,-3.67264 -50.56605,-17.37459 -88.25073,-30.4488 -37.68471,-13.07419 -84.55078,-29.17049 -104.14683,-35.76949 -19.59607,-6.59901 -47.46903,-16.01314 -61.93998,-20.92029 -49.38116,-16.74533 -75.63598,-25.61698 -87.15444,-29.45004 -6.33103,-2.10677 -24.0908,-8.08671 -39.46617,-13.28869 -15.37537,-5.202 -37.20511,-12.57528 -48.51051,-16.38509 l -20.55528,-6.9269 v -43.99523 c 0,-24.19738 0.20074,-43.99522 0.44594,-43.99522 0.82996,0 14.27371,4.31964 31.34623,10.07193 17.6729,5.95459 59.18909,19.73169 73.45093,24.37461 71.20156,23.17956 122.01815,40.35949 263.1078,88.95075 47.33198,16.30115 100.61132,34.59328 118.39852,40.6492 17.78716,6.05593 46.40013,15.87026 63.58436,21.80962 l 31.24405,10.79884 0.2828,44.69429 c 0.15536,24.58188 -0.0911,44.6886 -0.54815,44.68158 -0.45702,-0.007 -25.74399,-8.59891 -56.19322,-19.09316 z m 39.44376,-31.67445 -0.0217,-31.76147 -11.76263,-3.929 C 657.8256,544.33192 577.01226,516.80943 540.12893,504.01939 456.97244,475.18323 325.73439,430.22247 324.71958,430.22247 c -0.16564,0 -10.10235,-3.28882 -22.08139,-7.30848 -19.84021,-6.65755 -42.86733,-14.25734 -103.4531,-34.14328 -11.75765,-3.85919 -25.93095,-8.6067 -31.49624,-10.55 -5.56528,-1.94332 -10.37522,-3.5333 -10.68873,-3.5333 -0.31353,0 -0.57007,14.0092 -0.57007,31.13155 v 31.13154 l 21.45717,7.28654 c 11.80144,4.0076 21.66343,7.28654 21.91552,7.28654 0.25204,0 21.79937,7.23287 47.88273,16.07304 26.08338,8.84018 54.82423,18.5641 63.86857,21.60872 96.28496,32.41261 188.69552,64.02546 323.90454,110.80491 37.10757,12.83843 67.8383,23.36537 68.29052,23.39317 0.4522,0.0278 0.81214,-14.24206 0.79982,-31.71089 z M 634.40857,507.71835 C 587.07656,491.3701 544.40375,476.69523 539.5801,475.1075 c -4.82362,-1.58771 -37.87655,-12.88747 -73.45092,-25.11057 -35.57437,-12.22308 -80.71379,-27.62194 -100.30983,-34.21971 -19.59605,-6.59776 -47.46904,-16.01895 -61.93994,-20.93598 -24.82158,-8.43402 -37.96102,-12.84342 -78.35807,-26.29571 -9.33145,-3.10741 -32.27114,-10.82623 -50.97715,-17.15295 l -34.01092,-11.50315 -0.28279,-44.22208 c -0.15568,-24.32217 -0.0414,-44.22213 0.25421,-44.22213 0.61881,0 9.30345,2.81274 42.2356,13.67902 12.96355,4.27744 38.12323,12.49419 55.91043,18.25943 53.34435,17.29023 137.48363,45.23516 176.50145,58.62093 5.12513,1.75827 29.29816,9.96746 53.71783,18.24268 42.97148,14.56197 152.08332,51.96941 220.07872,75.45091 l 33.16256,11.45233 v 45.16912 c 0,24.84304 -0.36999,45.15871 -0.82221,45.14598 -0.45219,-0.0129 -39.54838,-13.39902 -86.88039,-29.74727 z m 69.8999,-21.39026 -0.28592,-32.14186 -50.429,-17.51697 c -27.736,-9.63433 -70.65547,-24.41479 -95.37663,-32.84548 -24.72118,-8.4307 -65.66732,-22.40587 -90.99146,-31.05595 -71.25851,-24.34006 -106.95325,-36.37943 -138.67971,-46.7748 -9.94876,-3.25977 -25.98191,-8.56939 -35.62919,-11.79918 -20.90721,-6.99943 -50.13772,-16.59541 -83.8656,-27.53196 -13.5665,-4.39902 -30.77455,-10.01434 -38.24011,-12.47842 -7.46557,-2.46408 -13.75548,-4.48013 -13.97761,-4.48013 -0.2222,0 -0.40386,13.99399 -0.40386,31.09776 0,23.98132 0.31362,31.265 1.37037,31.82851 0.75369,0.40192 16.41681,5.72702 34.80696,11.83354 38.59101,12.81435 68.40187,22.81955 103.14661,34.61841 13.51367,4.58905 41.59009,14.0791 62.39206,21.08896 40.11878,13.51929 65.28078,22.07095 137.58343,46.75965 103.41983,35.31404 126.97382,43.41031 166.08679,57.08938 22.61085,7.90772 41.48595,14.39402 41.94472,14.41404 0.45876,0.0194 0.70541,-14.42749 0.54815,-32.1055 z"
         id="path1" />
      <g
         id="g9"
         style="display:none">
        <path
           class="cls-1"
           d="m 625.45,307.3 c -9.9,10.33 -94.98,89.58 -100.52,93.94 -5.54,4.36 -21.5,-49.98 -154.17,-49.28 -129.52,14.4 -182.49,144.79 -185.76,152.91 -3.27,8.11 -10.23,47.3 -23.27,23.8 -13.9,-20.22 29.63,-121.25 29.63,-121.25 C 258.04,275.5 445.8,191.04 625.45,307.3 Z"
           id="path5" />
        <path
           class="cls-1"
           d="m 246.69,792.67 c 9.9,-10.33 94.98,-89.58 100.52,-93.94 5.54,-4.36 21.5,49.98 154.17,49.28 129.52,-14.4 182.49,-144.79 185.76,-152.91 3.27,-8.11 10.23,-47.3 23.27,-23.8 13.9,20.22 -29.63,121.25 -29.63,121.25 C 614.1,824.47 426.34,908.93 246.69,792.67 Z"
           id="path6" />
        <path
           class="cls-1"
           d="m 383.98,602.1 -164.44,165.59 -25.3,-36.22 94.87,-160.42 h 77.62 c 3.88,12.93 9.12,23.97 17.25,31.05 z"
           id="path7" />
        <path
           class="cls-1"
           d="m 487.47,498.89 164.44,-165.59 25.3,36.22 -94.87,160.42 h -77.62 c -3.88,-12.93 -9.12,-23.97 -17.25,-31.05 z"
           id="path8" />
        <circle
           class="cls-1"
           cx="435.98999"
           cy="544.02002"
           r="46.290001"
           id="circle8" />
        <circle
           class="cls-2"
           cx="435.98999"
           cy="544.02002"
           r="338.95999"
           id="circle9" />
      </g>
      <path
         class="cls-2"
         d="M 405.08,114.15 C 181.48,129.99 5,316.38 5,544.02 c 0,227.64 192.96,430.99 430.99,430.99 238.03,0 430.99,-192.96 430.99,-430.99 0,-238.03 -176.45,-413.98 -400.01,-429.87"
         id="path9"
         style="display:inline" />
      <polygon
         class="cls-3"
         points="474.11,109.61 474.11,45.75 397.95,45.75 397.95,109.61 405.08,109.61 405.08,52.41 466.97,52.41 466.97,109.61 "
         id="polygon9"
         style="display:inline" />
      <rect
         class="cls-1"
         x="395.23999"
         y="111.42"
         width="13.45"
         height="10.25"
         id="rect9"
         style="display:inline" />
      <rect
         class="cls-1"
         x="463.32999"
         y="107.99"
         width="13.49"
         height="14.19"
         id="rect10"
         style="display:inline" />
    </g>
  </g>
</svg>
